# xmcd
#
# Track frame offsets:
# 150
# 20820
# 40438
# 52355
# 70676
# 85387
# 102255
# 118361
# 135099
# 150521
# 168084
# 185755
# 201181
# 218490
# 231339
# 250912
# 262500
# 283800
#
# Disc length: 4004 seconds
#
#
# Revision: 0
# Processed by: cddbd v1.5.2PL0 Copyright (c) Steve Scherf et al.
# Submitted via: FreeRIP 2.951 
#
DISCID=040fa212
DTITLE=Garth Brooks - The hits
DYEAR=1900
DGENRE=Country
TTITLE0=Ain't goin down (til the sun comes up)
TTITLE1=Friends in low places
TTITLE2=Callin' Baton Rouge
TTITLE3=The River
TTITLE4=Much too young (to feel this damn old)
TTITLE5=The thunder rolls
TTITLE6=American Honky-Tonk Bar Association
TTITLE7=If tomorrow never comes
TTITLE8=Unanswered prayers
TTITLE9=Standing outside the fire
TTITLE10=Rodeo
TTITLE11=What she's doing now
TTITLE12=We shall be free
TTITLE13=Papa loved mama
TTITLE14=Shameless
TTITLE15=Two of a kind, workin' on a full house
TTITLE16=That Summer
TTITLE17=The dance
EXTD=
EXTT0=
EXTT1=
EXTT2=
EXTT3=
EXTT4=
EXTT5=
EXTT6=
EXTT7=
EXTT8=
EXTT9=
EXTT10=
EXTT11=
EXTT12=
EXTT13=
EXTT14=
EXTT15=
EXTT16=
EXTT17=
PLAYORDER=
